Coordinates
version=1
nRows=14
nColumns=38
inDegrees=no

Units are S.I. units (second, meters, Newtons, ...)
If the header above contains a line with 'inDegrees', this indicates whether rotational values are in degrees (yes) or radians (no).

endheader
time	pelvis_tilt	pelvis_list	pelvis_rotation	pelvis_tx	pelvis_ty	pelvis_tz	hip_flexion_r	hip_adduction_r	hip_rotation_r	knee_angle_r	ankle_angle_r	subtalar_angle_r	mtp_angle_r	hip_flexion_l	hip_adduction_l	hip_rotation_l	knee_angle_l	ankle_angle_l	subtalar_angle_l	mtp_angle_l	lumbar_extension	lumbar_bending	lumbar_rotation	arm_flex_r	arm_add_r	arm_rot_r	elbow_flex_r	pro_sup_r	wrist_flex_r	wrist_dev_r	arm_flex_l	arm_add_l	arm_rot_l	elbow_flex_l	pro_sup_l	wrist_flex_l	wrist_dev_l
15	-1.90629	1.50453	0.279529	0.742145	2.00825	1.03404	-0.0368927	-0.00391982	0.0941739	0	-0.270983	0	0	-0.0323711	-0.149618	-0.335956	0.126869	-0.320867	0	0	-0.0834738	0.120878	-0.100753	0.267896	-0.151106	0.762515	0.360172	1.5708	0	0	0.0453538	-0.254297	0.608134	0.496447	1.28353	0	0
15.01	-1.89494	1.50445	0.267974	0.742068	2.00843	1.03408	-0.0371931	-0.0035848	0.0947396	0	-0.270812	0	0	-0.0330168	-0.149998	-0.33643	0.126844	-0.320962	0	0	-0.0842821	0.122333	-0.0988855	0.269819	-0.151898	0.77398	0.354549	1.5708	0	0	0.0470929	-0.254778	0.613022	0.496103	1.28768	0	0
15.02	-1.88188	1.50447	0.254823	0.742022	2.00861	1.03413	-0.0376801	-0.00333248	0.0950475	0	-0.270664	0	0	-0.0337278	-0.150301	-0.336956	0.126927	-0.320925	0	0	-0.0852255	0.123794	-0.0973242	0.272155	-0.152656	0.788168	0.34821	1.5708	0	0	0.0486073	-0.255148	0.617252	0.495679	1.29107	0	0
15.03	-1.87433	1.50439	0.247981	0.742057	2.0087	1.03413	-0.0380299	-0.00306334	0.0940255	0	-0.270514	0	0	-0.0338468	-0.150602	-0.337049	0.127186	-0.320823	0	0	-0.0851769	0.125273	-0.0974227	0.274211	-0.153184	0.800431	0.342	1.5708	0	0	0.0491012	-0.255504	0.620345	0.495228	1.29376	0	0
15.04	-1.87167	1.50432	0.246484	0.74215	2.00873	1.03411	-0.0382072	-0.00292496	0.0921735	0	-0.270397	0	0	-0.0335452	-0.1508	-0.336942	0.12751	-0.320604	0	0	-0.0846508	0.126636	-0.0983044	0.275445	-0.153539	0.808097	0.336667	1.5708	0	0	0.0489821	-0.255718	0.622145	0.494847	1.29565	0	0
15.05	-1.87076	1.50431	0.246092	0.742152	2.0088	1.03409	-0.0380922	-0.00283153	0.0914158	0	-0.270291	0	0	-0.0332697	-0.150936	-0.337255	0.127777	-0.320469	0	0	-0.084162	0.127694	-0.0986901	0.276509	-0.15366	0.814143	0.331334	1.5708	0	0	0.0486792	-0.256006	0.623347	0.494458	1.29695	0	0
15.06	-1.87022	1.50406	0.245969	0.742135	2.00889	1.03405	-0.0378543	-0.00246124	0.090998	0	-0.27015	0	0	-0.032728	-0.151334	-0.337595	0.128589	-0.320281	0	0	-0.083604	0.128858	-0.0990049	0.277324	-0.153731	0.818638	0.326296	1.5708	0	0	0.048275	-0.256248	0.624284	0.494106	1.29772	0	0
15.07	-1.87288	1.5035	0.24921	0.742139	2.00893	1.03398	-0.0373662	-0.00181353	0.0901584	0	-0.270024	0	0	-0.0314902	-0.152043	-0.338065	0.130285	-0.319671	0	0	-0.0826431	0.130209	-0.0993632	0.277462	-0.154226	0.821591	0.322425	1.5708	0	0	0.0476677	-0.256395	0.624903	0.493717	1.29778	0	0
15.08	-1.87695	1.50313	0.253682	0.742119	2.00899	1.03391	-0.0367368	-0.00135074	0.0895275	0	-0.269877	0	0	-0.0304468	-0.152576	-0.338636	0.131555	-0.31894	0	0	-0.0817832	0.131157	-0.0997731	0.277455	-0.154559	0.823663	0.3186	1.5708	0	0	0.0471029	-0.256626	0.625486	0.492948	1.2974	0	0
15.09	-1.87861	1.50307	0.255439	0.742086	2.0091	1.03388	-0.0362264	-0.00120871	0.0892766	0	-0.26974	0	0	-0.0299901	-0.1527	-0.338973	0.131979	-0.318645	0	0	-0.0816824	0.131784	-0.100064	0.277599	-0.154758	0.823179	0.315141	1.5708	0	0	0.0466397	-0.256894	0.625458	0.492323	1.2966	0	0
15.1	-1.87842	1.50311	0.255327	0.742056	2.00923	1.03387	-0.0358281	-0.00114873	0.0890328	0	-0.26956	0	0	-0.0297604	-0.152707	-0.339238	0.13213	-0.318561	0	0	-0.0819147	0.132348	-0.100438	0.277634	-0.154873	0.821146	0.311916	1.5708	0	0	0.0461574	-0.257189	0.625156	0.49193	1.29529	0	0
15.11	-1.8779	1.50323	0.255057	0.742059	2.00935	1.03386	-0.0355051	-0.0011866	0.0887636	0	-0.269344	0	0	-0.0295846	-0.152628	-0.339419	0.132195	-0.318589	0	0	-0.0820286	0.132851	-0.100867	0.27725	-0.155054	0.817266	0.308972	1.5708	0	0	0.0455774	-0.257474	0.624724	0.49161	1.29343	0	0
15.12	-1.88072	1.50323	0.25793	0.742099	2.00945	1.03386	-0.0348583	-0.00122412	0.0887063	0	-0.26912	0	0	-0.0293856	-0.152536	-0.339776	0.131861	-0.318791	0	0	-0.0817877	0.133463	-0.101221	0.276513	-0.155421	0.812149	0.306253	1.5708	0	0	0.0447581	-0.257606	0.623976	0.491148	1.29134	0	0
15.13	-1.75135	1.44549	0.152794	0.748305	2.00955	1.03124	-0.0372295	0.05973	0.0573509	0	-0.277901	0	0	-0.0163499	-0.218479	-0.320557	0.158231	-0.285697	0	0	-0.0687715	0.210226	-0.134466	0.278477	-0.183747	0.830992	0.325702	1.5708	0	0	0.0361874	-0.236547	0.611234	0.489902	1.28541	0	0
